<svg width="486" height="409" viewBox="0 0 486 409" fill="none" xmlns="http://www.w3.org/2000/svg">
<g clip-path="url(#clip0_21_315)">
<path d="M0 300.615L69.66 264.487L138.78 293.117L208.44 275.393L277.56 265.85L347.22 304.023L416.34 266.532L486 241.992V409.682H416.34H347.22H277.56H208.44H138.78H69.66H0V300.615Z" fill="#C800D5"/>
<path d="M0 296.525L69.66 312.203L138.78 268.577L208.44 299.252L277.56 293.798L347.22 310.84L416.34 292.435L486 321.065V409.682H416.34H347.22H277.56H208.44H138.78H69.66H0V296.525Z" fill="#5786FF"/>
<path d="M0 320.383L69.66 299.933L138.78 335.38L208.44 345.605L277.56 328.563L347.22 312.203L416.34 337.425L486 323.792V409.682H416.34H347.22H277.56H208.44H138.78H69.66H0V320.383Z" fill="#00B6FF"/>
<path d="M0 334.698L69.66 339.47L138.78 346.287L208.44 341.515L277.56 361.965L347.22 331.29L416.34 353.785L486 361.283V409.682H416.34H347.22H277.56H208.44H138.78H69.66H0V334.698Z" fill="#00D3E0"/>
<path d="M0 364.01L69.66 384.46L138.78 365.373L208.44 363.328L277.56 368.1L347.22 386.505L416.34 357.875L486 375.598V409.682H416.34H347.22H277.56H208.44H138.78H69.66H0V364.01Z" fill="#00DE6C"/>
</g>
<defs>
<clipPath id="clip0_21_315">
<rect width="486" height="409" fill="white"/>
</clipPath>
</defs>
</svg>
