<svg width="591" height="296" viewBox="0 0 591 296" fill="none" xmlns="http://www.w3.org/2000/svg">
<path d="M101.375 157.876H99.6029V163.192H101.375V157.876Z" fill="#E5E5E5"/>
<path d="M101.375 276.449H99.6029V265.124H101.375V276.449ZM101.375 253.798H99.6029V242.472H101.375V253.798ZM101.375 231.146H99.6029V219.821H101.375V231.146ZM101.375 208.495H99.6029V197.169H101.375V208.495ZM101.375 185.843H99.6029V174.518H101.375V185.843Z" fill="#E5E5E5"/>
<path d="M101.375 287.775H99.6029V293.091H101.375V287.775Z" fill="#E5E5E5"/>
<path d="M295.394 157.876H293.622V163.192H295.394V157.876Z" fill="#E5E5E5"/>
<path d="M295.394 276.449H293.622V265.124H295.394V276.449ZM295.394 253.798H293.622V242.472H295.394V253.798ZM295.394 231.146H293.622V219.821H295.394V231.146ZM295.394 208.495H293.622V197.169H295.394V208.495ZM295.394 185.843H293.622V174.518H295.394V185.843Z" fill="#E5E5E5"/>
<path d="M295.394 287.775H293.622V293.091H295.394V287.775Z" fill="#E5E5E5"/>
<path d="M393.263 53.8894H391.491V59.205H393.263V53.8894Z" fill="#E5E5E5"/>
<path d="M393.263 276.891H391.491V266.007H393.263V276.891ZM393.263 255.123H391.491V244.238H393.263V255.123ZM393.263 233.354H391.491V222.469H393.263V233.354ZM393.263 211.585H391.491V200.701H393.263V211.585ZM393.263 189.817H391.491V178.932H393.263V189.817ZM393.263 168.048H391.491V157.164H393.263V168.048ZM393.263 146.279H391.491V135.395H393.263V146.279ZM393.263 124.511H391.491V113.627H393.263V124.511ZM393.263 102.742H391.491V91.8576H393.263V102.742ZM393.263 80.9734H391.491V70.0891H393.263V80.9734Z" fill="#E5E5E5"/>
<path d="M393.263 287.775H391.491V293.091H393.263V287.775Z" fill="#E5E5E5"/>
<path d="M490.155 11.3647H488.383V16.6803H490.155V11.3647Z" fill="#E5E5E5"/>
<path d="M490.155 276.932H488.383V266.088H490.155V276.932ZM490.155 255.244H488.383V244.4H490.155V255.244ZM490.155 233.557H488.383V222.713H490.155V233.557ZM490.155 211.869H488.383V201.025H490.155V211.869ZM490.155 190.181H488.383V179.337H490.155V190.181ZM490.155 168.494H488.383V157.65H490.155V168.494ZM490.155 146.806H488.383V135.962H490.155V146.806ZM490.155 125.118H488.383V114.275H490.155V125.118ZM490.155 103.431H488.383V92.587H490.155V103.431ZM490.155 81.7432H488.383V70.8994H490.155V81.7432ZM490.155 60.0556H488.383V49.2118H490.155V60.0556ZM490.155 38.368H488.383V27.5242H490.155V38.368Z" fill="#E5E5E5"/>
<path d="M490.155 287.775H488.383V293.091H490.155V287.775Z" fill="#E5E5E5"/>
<path d="M198.827 86.6689H197.055V91.9845H198.827V86.6689Z" fill="#E5E5E5"/>
<path d="M198.827 277.471H197.055V267.166H198.827V277.471ZM198.827 256.861H197.055V246.557H198.827V256.861ZM198.827 236.252H197.055V225.947H198.827V236.252ZM198.827 215.642H197.055V205.338H198.827V215.642ZM198.827 195.033H197.055V184.728H198.827V195.033ZM198.827 174.423H197.055V164.118H198.827V174.423ZM198.827 153.813H197.055V143.509H198.827V153.813ZM198.827 133.204H197.055V122.899H198.827V133.204ZM198.827 112.594H197.055V102.29H198.827V112.594Z" fill="#E5E5E5"/>
<path d="M198.827 287.775H197.055V293.091H198.827V287.775Z" fill="#E5E5E5"/>
<path d="M588.43 295.559H1.83575C1.34888 295.559 0.881971 295.366 0.537702 295.021C0.193432 294.677 2.34943e-05 294.21 0 293.723V12.5688C0.00106804 12.0826 0.19495 11.6167 0.539108 11.2733C0.883266 10.9299 1.34957 10.7371 1.83575 10.7371C2.32193 10.7371 2.78826 10.9299 3.13242 11.2733C3.47658 11.6167 3.67046 12.0826 3.67153 12.5688V291.888H588.43C588.671 291.887 588.91 291.934 589.134 292.026C589.357 292.118 589.56 292.253 589.731 292.424C589.901 292.594 590.037 292.797 590.13 293.02C590.222 293.243 590.27 293.482 590.27 293.723C590.27 293.965 590.222 294.204 590.13 294.427C590.037 294.65 589.901 294.852 589.731 295.023C589.56 295.193 589.357 295.329 589.134 295.421C588.91 295.513 588.671 295.56 588.43 295.559Z" fill="#3F3D56"/>
<path d="M295.313 160.344L197.785 87.2942L101.59 159.345L99.388 156.407L197.785 82.706L294.849 155.408L391.304 49.8548L391.691 49.6979L488.986 10.4963L490.359 13.9027L393.45 52.9475L295.313 160.344Z" fill="#3F3D56"/>
<path d="M100.489 168.891C106.572 168.891 111.504 163.96 111.504 157.876C111.504 151.793 106.572 146.862 100.489 146.862C94.4056 146.862 89.4742 151.793 89.4742 157.876C89.4742 163.96 94.4056 168.891 100.489 168.891Z" fill="#00DE6C"/>
<path d="M197.785 97.2959C203.868 97.2959 208.8 92.3644 208.8 86.2812C208.8 80.198 203.868 75.2666 197.785 75.2666C191.702 75.2666 186.77 80.198 186.77 86.2812C186.77 92.3644 191.702 97.2959 197.785 97.2959Z" fill="#00DE6C"/>
<path d="M295.081 168.891C301.164 168.891 306.095 163.96 306.095 157.876C306.095 151.793 301.164 146.862 295.081 146.862C288.997 146.862 284.066 151.793 284.066 157.876C284.066 163.96 288.997 168.891 295.081 168.891Z" fill="#C800D5"/>
<path d="M392.377 62.4162C398.46 62.4162 403.391 57.4848 403.391 51.4016C403.391 45.3184 398.46 40.387 392.377 40.387C386.293 40.387 381.362 45.3184 381.362 51.4016C381.362 57.4848 386.293 62.4162 392.377 62.4162Z" fill="#00DE6C"/>
<path d="M489.673 22.0293C495.756 22.0293 500.687 17.0978 500.687 11.0146C500.687 4.93142 495.756 0 489.673 0C483.589 0 478.658 4.93142 478.658 11.0146C478.658 17.0978 483.589 22.0293 489.673 22.0293Z" fill="#00DE6C"/>
</svg>
