<svg width="690" height="551" viewBox="0 0 690 551" fill="none" xmlns="http://www.w3.org/2000/svg">
<g clip-path="url(#clip0_14_129)">
<path d="M0 0H690V551H0V0Z" fill="black"/>
<path d="M403.578 469.37C346.218 469.37 299.719 403.358 299.719 321.927C299.719 240.496 346.218 174.483 403.578 174.483C460.938 174.483 507.438 240.496 507.438 321.927C507.438 403.358 460.938 469.37 403.578 469.37Z" fill="#00DE6C"/>
<path d="M197.656 268.357C172.45 268.357 152.016 239.348 152.016 203.564C152.016 167.779 172.45 138.77 197.656 138.77C222.863 138.77 243.297 167.779 243.297 203.564C243.297 239.348 222.863 268.357 197.656 268.357Z" fill="#00DE6C"/>
<path d="M74.0312 531.103C46.6414 531.103 24.4375 499.581 24.4375 460.697C24.4375 421.813 46.6414 390.292 74.0312 390.292C101.421 390.292 123.625 421.813 123.625 460.697C123.625 499.581 101.421 531.103 74.0312 531.103Z" fill="#00DE6C"/>
</g>
<defs>
<clipPath id="clip0_14_129">
<rect width="690" height="551" fill="white" transform="matrix(-1 0 0 1 690 0)"/>
</clipPath>
</defs>
</svg>
