<svg width="1920" height="1114" viewBox="0 0 1920 1114" fill="none" xmlns="http://www.w3.org/2000/svg">
<g opacity="0.8" clip-path="url(#clip0_5_21)" filter="url(#filter0_f_5_21)">
<g opacity="0.5" clip-path="url(#clip1_5_21)" filter="url(#filter1_f_5_21)">
<path d="M376.201 236.185C316.762 236.185 268.578 182.153 268.578 115.501C268.578 48.8488 316.762 -5.18333 376.201 -5.18333C435.639 -5.18333 483.823 48.8488 483.823 115.501C483.823 182.153 435.639 236.185 376.201 236.185Z" fill="#00DE6C"/>
<path d="M162.818 71.6537C136.698 71.6537 115.523 47.9095 115.523 18.6194C115.523 -10.6706 136.698 -34.4148 162.818 -34.4148C188.938 -34.4148 210.112 -10.6706 210.112 18.6194C210.112 47.9095 188.938 71.6537 162.818 71.6537Z" fill="#00DE6C"/>
<path d="M34.7135 286.714C6.33127 286.714 -16.6771 260.913 -16.6771 229.086C-16.6771 197.259 6.33127 171.458 34.7135 171.458C63.0958 171.458 86.1042 197.259 86.1042 229.086C86.1042 260.913 63.0958 286.714 34.7135 286.714Z" fill="#00DE6C"/>
</g>
<path d="M-18 666L160.213 671.4L338.427 531L514.467 635.4L692.68 658.8L870.893 595.8L1049.11 658.8L1227.32 624.6L1405.53 635.4L1581.57 577.8L1759.79 669.6L1938 621V1081.8H1759.79H1581.57H1405.53H1227.32H1049.11H870.893H692.68H514.467H338.427H160.213H-18V666Z" fill="#BF00E1"/>
<path d="M-18 581.4L160.213 684L338.427 664.2L514.467 696.6L692.68 658.8L870.893 624.6L1049.11 610.2L1227.32 567L1405.53 693L1581.57 637.2L1759.79 624.6L1938 599.4V1081.8H1759.79H1581.57H1405.53H1227.32H1049.11H870.893H692.68H514.467H338.427H160.213H-18V581.4Z" fill="#B300D3"/>
<path d="M-18 720L160.213 736.2L338.427 730.8L514.467 689.4L692.68 651.6H870.893L1049.11 738L1227.32 669.6L1405.53 747L1581.57 640.8L1759.79 664.2L1938 730.8V1081.8H1759.79H1581.57H1405.53H1227.32H1049.11H870.893H692.68H514.467H338.427H160.213H-18V720Z" fill="#A800C6"/>
<path d="M-18 781.2L160.213 729L338.427 725.4L514.467 702L692.68 781.2L870.893 788.4L1049.11 784.8L1227.32 748.8L1405.53 716.4L1581.57 795.6L1759.79 727.2L1938 784.8V1081.8H1759.79H1581.57H1405.53H1227.32H1049.11H870.893H692.68H514.467H338.427H160.213H-18V781.2Z" fill="#9D00B9"/>
<path d="M-18 772.2L160.213 802.8L338.427 752.4L514.467 725.4L692.68 810L870.893 748.8L1049.11 820.8L1227.32 797.4L1405.53 752.4L1581.57 734.4L1759.79 741.6L1938 761.4V1081.8H1759.79H1581.57H1405.53H1227.32H1049.11H870.893H692.68H514.467H338.427H160.213H-18V772.2Z" fill="#9200AB"/>
<path d="M-18 842.4L160.213 831.6L338.427 878.4L514.467 837L692.68 828L870.893 851.4L1049.11 779.4L1227.32 824.4L1405.53 865.8L1581.57 790.2L1759.79 779.4L1938 784.8V1081.8H1759.79H1581.57H1405.53H1227.32H1049.11H870.893H692.68H514.467H338.427H160.213H-18V842.4Z" fill="#86009F"/>
<path d="M-18 865.8L160.213 846L338.427 921.6L514.467 835.2L692.68 853.2L870.893 921.6L1049.11 925.2L1227.32 880.2L1405.53 905.4L1581.57 853.2L1759.79 860.4L1938 835.2V1081.8H1759.79H1581.57H1405.53H1227.32H1049.11H870.893H692.68H514.467H338.427H160.213H-18V865.8Z" fill="#7C0092"/>
<path d="M-18 959.4L160.213 954L338.427 919.8L514.467 910.8L692.68 943.2L870.893 934.2L1049.11 957.6L1227.32 894.6L1405.53 948.6L1581.57 921.6L1759.79 885.6L1938 954V1081.8H1759.79H1581.57H1405.53H1227.32H1049.11H870.893H692.68H514.467H338.427H160.213H-18V959.4Z" fill="#710085"/>
<path d="M-18 1006.2L160.213 975.6L338.427 961.2L514.467 937.8L692.68 943.2L870.893 963L1049.11 988.2L1227.32 997.2L1405.53 955.8L1581.57 981L1759.79 946.8L1938 975.6V1081.8H1759.79H1581.57H1405.53H1227.32H1049.11H870.893H692.68H514.467H338.427H160.213H-18V1006.2Z" fill="#660079"/>
<path d="M-18 1000.8L160.213 1033.2L338.427 990L514.467 1002.6L692.68 1018.8L870.893 1013.4L1049.11 1024.2L1227.32 1018.8L1405.53 1015.2H1581.57L1759.79 995.4L1938 1002.6V1081.8H1759.79H1581.57H1405.53H1227.32H1049.11H870.893H692.68H514.467H338.427H160.213H-18V1000.8Z" fill="#5C006D"/>
<rect x="-18" y="694.406" width="1956" height="385.594" fill="url(#paint0_linear_5_21)"/>
</g>
<defs>
<filter id="filter0_f_5_21" x="-51.1" y="-33.1" width="2022.2" height="1146.2" filterUnits="userSpaceOnUse" color-interpolation-filters="sRGB">
<feFlood flood-opacity="0" result="BackgroundImageFix"/>
<feBlend mode="normal" in="SourceGraphic" in2="BackgroundImageFix" result="shape"/>
<feGaussianBlur stdDeviation="16.55" result="effect1_foregroundBlur_5_21"/>
</filter>
<filter id="filter1_f_5_21" x="-81" y="-187" width="793" height="529" filterUnits="userSpaceOnUse" color-interpolation-filters="sRGB">
<feFlood flood-opacity="0" result="BackgroundImageFix"/>
<feBlend mode="normal" in="SourceGraphic" in2="BackgroundImageFix" result="shape"/>
<feGaussianBlur stdDeviation="19.5" result="effect1_foregroundBlur_5_21"/>
</filter>
<linearGradient id="paint0_linear_5_21" x1="960" y1="694.406" x2="960" y2="1080" gradientUnits="userSpaceOnUse">
<stop stop-opacity="0"/>
<stop offset="1"/>
</linearGradient>
<clipPath id="clip0_5_21">
<rect width="1956" height="1080" fill="white" transform="translate(-18)"/>
</clipPath>
<clipPath id="clip1_5_21">
<rect width="715" height="451" fill="white" transform="matrix(-1 0 0 1 673 -148)"/>
</clipPath>
</defs>
</svg>
