<svg width="713" height="510" viewBox="0 0 713 510" fill="none" xmlns="http://www.w3.org/2000/svg">
<g clip-path="url(#clip0_5_82)">
<path d="M713 0.988281H-0.00012207V509.032H713V0.988281Z" fill="black"/>
<path d="M295.969 433.766C355.241 433.766 403.291 372.9 403.291 297.818C403.291 222.735 355.241 161.869 295.969 161.869C236.697 161.869 188.648 222.735 188.648 297.818C188.648 372.9 236.697 433.766 295.969 433.766Z" fill="#C800D5"/>
<path d="M508.755 248.424C534.802 248.424 555.917 221.677 555.917 188.682C555.917 155.688 534.802 128.94 508.755 128.94C482.708 128.94 461.593 155.688 461.593 188.682C461.593 221.677 482.708 248.424 508.755 248.424Z" fill="#C800D5"/>
<path d="M636.501 490.686C664.804 490.686 687.748 461.622 687.748 425.769C687.748 389.917 664.804 360.853 636.501 360.853C608.198 360.853 585.254 389.917 585.254 425.769C585.254 461.622 608.198 490.686 636.501 490.686Z" fill="#C800D5"/>
</g>
<defs>
<clipPath id="clip0_5_82">
<rect width="713" height="508.044" fill="white" transform="translate(-0.00012207 0.988281)"/>
</clipPath>
</defs>
</svg>
